<svg width="153" height="60" viewBox="0 0 153 60" fill="none" xmlns="http://www.w3.org/2000/svg">
<path d="M100.858 36.52L99.5188 32.9123H87.8255L86.486 36.5905C85.9522 38.0417 85.4989 38.999 85.1061 39.4928C84.7134 40.0269 84.1191 40.2687 83.2328 40.2687C82.5278 40.2687 81.853 39.9866 81.289 39.4525C80.7552 38.9184 80.4731 38.3238 80.4731 37.6486C80.4731 37.2556 80.5436 36.8324 80.6544 36.4091C80.7954 35.9859 81.0069 35.4216 81.289 34.6759L88.6413 16.043C88.8528 15.4787 89.1046 14.8438 89.4169 14.0981C89.6989 13.3524 90.0212 12.7175 90.3334 12.2237C90.6859 11.7299 91.1089 11.3369 91.6427 11.0245C92.2067 10.7021 92.8815 10.561 93.6571 10.561C94.4326 10.561 95.1376 10.7021 95.7016 11.0245C96.2354 11.347 96.6584 11.7299 97.011 12.2237C97.3333 12.6873 97.6153 13.2113 97.8268 13.7756C98.0685 14.3097 98.3606 15.0454 98.7131 15.9725L106.206 34.5348C106.811 35.9154 107.093 36.9332 107.093 37.6083C107.093 38.2432 106.811 38.8781 106.277 39.4122C105.713 39.9765 105.038 40.2587 104.263 40.2587C103.799 40.2587 103.417 40.1881 103.094 40.0067C102.742 39.8253 102.49 39.6137 102.248 39.3315C102.037 39.0494 101.785 38.6261 101.543 38.0618C101.291 37.4572 101.08 36.9634 100.868 36.5099L100.858 36.52ZM89.3766 28.5287H97.9275L93.6168 16.7182L89.3766 28.5287Z" fill="white"/>
<path d="M66.1613 30.1209H64.57V37.3362C64.57 38.2533 64.3585 38.9587 63.9355 39.4222C63.5125 39.8455 62.9485 40.0974 62.3139 40.0974C61.5686 40.0974 61.0046 39.8455 60.6219 39.392C60.2291 38.9285 60.0176 38.223 60.0176 37.3463V20.0941C60.0176 19.1065 60.2291 18.4011 60.6924 17.9778C61.1154 17.5143 61.8204 17.3027 62.8075 17.3027H70.1901C71.1771 17.3027 72.0634 17.343 72.8087 17.4437C73.5137 17.5143 74.1885 17.6957 74.7526 17.9778C75.4576 18.26 76.0619 18.6832 76.6259 19.2476C77.1597 19.7817 77.5827 20.4165 77.8244 21.1522C78.1064 21.8979 78.2475 22.6335 78.2475 23.4901C78.2475 25.1528 77.7842 26.4931 76.8374 27.4807C75.9209 28.4683 74.4705 29.1737 72.567 29.5969C73.3828 30.0202 74.1583 30.655 74.8633 31.5015C75.6087 32.3178 76.2734 33.1945 76.8374 34.1518C77.4014 35.1092 77.8647 35.9557 78.177 36.7014C78.4992 37.4773 78.6705 37.9711 78.6705 38.2533C78.6705 38.5758 78.5597 38.8579 78.3885 39.1401C78.177 39.4625 77.9252 39.6742 77.6129 39.8455C77.2906 39.9866 76.9079 40.0974 76.4849 40.0974C75.9511 40.0974 75.5281 39.9563 75.1756 39.7447C74.8533 39.4928 74.541 39.1804 74.2893 38.8277C74.0375 38.475 73.7252 37.9107 73.2619 37.2052L71.4591 34.2022C70.7843 33.0736 70.2203 32.2271 69.6965 31.6527C69.203 31.048 68.6692 30.6651 68.1455 30.4535C67.6117 30.2419 66.9469 30.131 66.1714 30.131L66.1613 30.1209ZM68.7397 20.7188H64.57V26.866H68.5987C69.6965 26.866 70.6131 26.7551 71.3584 26.5838C72.1037 26.4024 72.6677 26.09 73.0907 25.6265C73.4835 25.1629 73.6547 24.5281 73.6547 23.7521C73.6547 23.1172 73.5137 22.5831 73.1914 22.0894C72.8691 21.6258 72.4461 21.2731 71.8821 21.0312C71.3483 20.8196 70.2908 20.7088 68.7397 20.7088V20.7188Z" fill="white"/>
<path d="M45.1315 16.9399C47.4278 16.9399 49.4422 17.4034 51.104 18.3205C52.7659 19.2778 54.0349 20.6181 54.8809 22.3514C55.727 24.0847 56.15 26.1303 56.15 28.4683C56.15 30.2016 55.9385 31.7938 55.4449 33.2046C54.9816 34.6154 54.2766 35.8549 53.3601 36.8828C52.4033 37.9107 51.2752 38.7168 49.8954 39.2812C48.5156 39.8153 46.9645 40.0974 45.1919 40.0974C43.4193 40.0974 41.8682 39.8153 40.4884 39.2509C39.1086 38.6866 37.9402 37.8703 37.0237 36.8425C36.1072 35.8146 35.4022 34.5751 34.9086 33.134C34.4453 31.6829 34.2036 30.131 34.2036 28.428C34.2036 26.7249 34.4554 25.1428 34.9489 23.6916C35.4424 22.2808 36.1877 21.0413 37.1043 20.0538C38.0611 19.0259 39.1891 18.2499 40.5287 17.7158C41.8682 17.1817 43.3891 16.9399 45.1214 16.9399H45.1315ZM51.5673 28.428C51.5673 26.8055 51.2853 25.3846 50.7918 24.1854C50.2278 22.9862 49.4825 22.0692 48.4954 21.4243C47.5386 20.8196 46.4106 20.5072 45.1415 20.5072C44.225 20.5072 43.379 20.6886 42.6337 21.0413C41.8581 21.394 41.1833 21.8878 40.6193 22.5227C40.0855 23.1576 39.6323 24.004 39.31 25.0319C38.9877 26.0195 38.8467 27.1885 38.8467 28.428C38.8467 29.738 38.9877 30.8667 39.31 31.8945C39.6323 32.9224 40.0855 33.7991 40.6898 34.4743C41.2538 35.1495 41.9287 35.6433 42.7042 35.996C43.4495 36.3185 44.2955 36.4898 45.1818 36.4898C46.3501 36.4898 47.4077 36.2076 48.3947 35.603C49.3515 35.0386 50.1271 34.1518 50.7314 32.9123C51.2954 31.7131 51.5774 30.2217 51.5774 28.4179L51.5673 28.428Z" fill="white"/>
<path d="M58.1745 15.5593H19.8414V22.8754H29.4196C30.3059 22.8754 30.9707 23.087 31.3937 23.48C31.857 23.9033 32.0685 24.4374 32.0685 25.0722C32.0685 25.7474 31.857 26.2714 31.3937 26.6644C30.9707 27.0877 30.2958 27.2691 29.4196 27.2691H19.8414V36.7417C19.8414 37.9409 19.5594 38.8277 19.0256 39.392C18.4918 39.9966 17.7867 40.2788 16.9407 40.2788C16.0947 40.2788 15.3897 39.9966 14.8559 39.392C14.2918 38.7874 14.04 37.9107 14.04 36.7417V14.602C14.04 13.7857 14.1408 13.1206 14.3926 12.5865C14.6443 12.0524 15.0271 11.6695 15.5609 11.4175C16.0947 11.1757 16.7594 11.0648 17.5752 11.0648H62.6564L58.1644 15.5593H58.1745Z" fill="white"/>
<path d="M82.5884 15.5593H59.6953L64.1873 11.0648H82.5985C83.515 11.0648 84.1898 11.2462 84.6531 11.6695C85.1164 12.0927 85.3279 12.6268 85.3279 13.2919C85.3279 13.957 85.1164 14.5314 84.6531 14.9143C84.1898 15.3376 83.5251 15.5492 82.5985 15.5492L82.5884 15.5593Z" fill="white"/>
<path d="M14.1509 45.1159H15.0876L16.0746 47.2523H16.0947L17.1523 45.1159H18.0486L19.1666 47.2523H19.1868L20.1234 45.1159H21.0198L19.5997 47.9778H18.7537L17.5853 45.8415H17.5652L16.4976 47.9778H15.6012L14.1509 45.1159Z" fill="white"/>
<path d="M25.0184 45.4686C25.25 45.3275 25.5321 45.2267 25.8342 45.1562C26.1464 45.0857 26.4587 45.0453 26.7608 45.0453C27.063 45.0453 27.3651 45.0756 27.5968 45.126C27.8284 45.1764 28.0198 45.2469 28.1709 45.3376C28.3219 45.4283 28.4327 45.5291 28.5032 45.6399C28.5737 45.7508 28.614 45.8717 28.614 46.0027V47.4639C28.614 47.5647 28.614 47.6554 28.614 47.7461C28.614 47.8267 28.6342 47.9073 28.6442 47.9879H27.8989C27.8788 47.8468 27.8687 47.6957 27.8687 47.5546H27.8486C27.6673 47.736 27.4457 47.867 27.1838 47.9476C26.932 48.0282 26.6299 48.0584 26.2975 48.0584C26.0961 48.0584 25.8946 48.0383 25.7133 48.0081C25.5321 47.9678 25.3608 47.9174 25.2198 47.8468C25.0788 47.7763 24.968 47.6856 24.8875 47.5747C24.8069 47.4639 24.7666 47.343 24.7666 47.2019C24.7666 47.0205 24.827 46.8593 24.958 46.7383C25.0889 46.6174 25.2601 46.5166 25.4817 46.436C25.7033 46.3554 25.9551 46.305 26.2572 46.2647C26.5493 46.2345 26.8716 46.2143 27.204 46.2143H27.8183V46.0934C27.8183 46.0228 27.7982 45.9523 27.7579 45.8717C27.7176 45.8011 27.6471 45.7306 27.5665 45.6802C27.4759 45.6198 27.3752 45.5794 27.2443 45.5391C27.1133 45.4988 26.9622 45.4887 26.781 45.4887C26.6198 45.4887 26.4788 45.4887 26.3579 45.519C26.2371 45.5391 26.1263 45.5593 26.0256 45.5895C25.9249 45.6198 25.8342 45.65 25.7536 45.6903C25.6731 45.7306 25.5925 45.7709 25.522 45.8011L25.0184 45.4585V45.4686ZM27.3853 46.5972C27.1838 46.5972 26.9824 46.5972 26.7709 46.6174C26.5594 46.6275 26.3781 46.6577 26.2069 46.698C26.0356 46.7383 25.8946 46.7988 25.7838 46.8693C25.6731 46.9399 25.6227 47.0306 25.6227 47.1515C25.6227 47.3127 25.7033 47.4337 25.8745 47.5042C26.0457 47.5747 26.2774 47.615 26.5694 47.615C26.8011 47.615 26.9925 47.5848 27.1536 47.5445C27.3148 47.4941 27.4457 47.4236 27.5464 47.353C27.6471 47.2724 27.7176 47.1817 27.7579 47.081C27.7982 46.9802 27.8183 46.8895 27.8183 46.7887V46.6073H27.3752L27.3853 46.5972Z" fill="white"/>
<path d="M33.0859 45.1159H33.9219V45.5593H33.942C34.0025 45.4787 34.073 45.4182 34.1636 45.3477C34.2543 45.2872 34.3651 45.2368 34.4758 45.1864C34.5866 45.1461 34.7176 45.1058 34.8485 45.0857C34.9895 45.0554 35.1204 45.0453 35.2614 45.0453C35.4024 45.0453 35.5233 45.0554 35.6341 45.0857L35.5938 45.6701C35.5233 45.6601 35.4528 45.65 35.3924 45.6399C35.3219 45.6399 35.2514 45.6298 35.1909 45.6298C34.778 45.6298 34.4658 45.7004 34.2543 45.8515C34.0428 46.0027 33.932 46.2345 33.932 46.5469V47.9879H33.096V45.126L33.0859 45.1159Z" fill="white"/>
<path d="M40.257 46.7484C40.257 46.8693 40.2973 46.9903 40.3779 47.091C40.4585 47.1918 40.5693 47.2825 40.7103 47.353C40.8513 47.4236 41.0024 47.484 41.1836 47.5244C41.3649 47.5647 41.5462 47.5848 41.7376 47.5848C41.9995 47.5848 42.221 47.5445 42.4124 47.4639C42.6038 47.3833 42.7851 47.2825 42.9462 47.1515L43.5807 47.4639C43.1174 47.8569 42.4628 48.0484 41.6268 48.0484C41.2743 48.0484 40.9621 48.0081 40.6801 47.9375C40.398 47.8569 40.1563 47.7561 39.965 47.6251C39.7736 47.4941 39.6225 47.3329 39.5117 47.1515C39.4009 46.9701 39.3506 46.7686 39.3506 46.5569C39.3506 46.3453 39.411 46.1438 39.5218 45.9624C39.6326 45.781 39.7937 45.6198 39.9952 45.4887C40.1966 45.3577 40.4383 45.2469 40.7203 45.1764C41.0024 45.0957 41.3045 45.0655 41.6369 45.0655C42.0297 45.0655 42.362 45.1058 42.6239 45.1965C42.8958 45.2872 43.1174 45.3981 43.2886 45.5391C43.4599 45.6802 43.5908 45.8415 43.6613 46.0228C43.7419 46.2042 43.7822 46.3856 43.7822 46.567V46.7585H40.247L40.257 46.7484ZM42.8958 46.305C42.8958 46.1841 42.8556 46.0732 42.8052 45.9725C42.7548 45.8717 42.6743 45.781 42.5635 45.7104C42.4527 45.6399 42.3218 45.5794 42.1707 45.5391C42.0095 45.4988 41.8282 45.4787 41.6167 45.4787C41.4052 45.4787 41.2239 45.5089 41.0527 45.5492C40.8815 45.5996 40.7405 45.6701 40.6196 45.7407C40.4988 45.8213 40.4081 45.912 40.3477 46.0128C40.2873 46.1135 40.247 46.2042 40.247 46.305H42.8858H42.8958Z" fill="white"/>
<path d="M48.0522 43.4128H48.8882V45.5593H48.9083C49.0091 45.4081 49.2004 45.2872 49.4623 45.1864C49.7242 45.0957 50.0263 45.0454 50.3687 45.0454C50.5803 45.0454 50.7817 45.0655 50.9831 45.1058C51.1745 45.1461 51.3457 45.2167 51.4968 45.2973C51.6378 45.388 51.7587 45.4988 51.8493 45.6399C51.9399 45.781 51.9802 45.9422 51.9802 46.1337V47.9778H51.1443V46.2849C51.1443 46.1538 51.1141 46.043 51.0637 45.9422C51.0133 45.8415 50.9328 45.7709 50.8421 45.7104C50.7515 45.65 50.6407 45.6097 50.5198 45.5794C50.399 45.5492 50.2781 45.5391 50.1472 45.5391C49.976 45.5391 49.8148 45.5593 49.6637 45.5895C49.5127 45.6198 49.3817 45.6802 49.2709 45.7608C49.1601 45.8415 49.0695 45.9422 49.0091 46.0632C48.9486 46.1841 48.9184 46.3252 48.9184 46.4965V47.9678H48.0825V43.4028L48.0522 43.4128Z" fill="white"/>
<path d="M56.271 46.5469C56.271 46.3352 56.3314 46.1438 56.4523 45.9624C56.5731 45.781 56.7343 45.6198 56.9458 45.4887C57.1573 45.3477 57.4091 45.2469 57.6911 45.1663C57.9731 45.0857 58.2853 45.0453 58.6177 45.0453C58.9501 45.0453 59.2522 45.0857 59.5342 45.1663C59.8163 45.2469 60.068 45.3477 60.2796 45.4887C60.4911 45.6298 60.6522 45.781 60.7731 45.9624C60.8939 46.1438 60.9544 46.3352 60.9544 46.5469C60.9544 46.7585 60.8939 46.95 60.7731 47.1313C60.6522 47.3127 60.481 47.474 60.2796 47.605C60.068 47.736 59.8163 47.8468 59.5342 47.9274C59.2522 48.0081 58.94 48.0484 58.6177 48.0484C58.2954 48.0484 57.9832 48.0081 57.6911 47.9274C57.4091 47.8468 57.1573 47.7461 56.9458 47.605C56.7343 47.4639 56.5731 47.3127 56.4523 47.1313C56.3314 46.95 56.271 46.7484 56.271 46.5469ZM57.1674 46.5469C57.1674 46.6879 57.1976 46.829 57.2681 46.95C57.3386 47.0709 57.4293 47.1817 57.5602 47.2623C57.681 47.353 57.8321 47.4135 58.0134 47.4639C58.1947 47.5143 58.3961 47.5344 58.6177 47.5344C58.8393 47.5344 59.0407 47.5143 59.222 47.4639C59.4033 47.4135 59.5544 47.343 59.6752 47.2623C59.7961 47.1717 59.8968 47.0709 59.9673 46.95C60.0378 46.829 60.068 46.6879 60.068 46.5469C60.068 46.4058 60.0378 46.2647 59.9673 46.1438C59.8968 46.0228 59.8062 45.912 59.6752 45.8314C59.5544 45.7407 59.4033 45.6802 59.222 45.6298C59.0407 45.5794 58.8393 45.5593 58.6177 45.5593C58.3961 45.5593 58.1947 45.5895 58.0134 45.6298C57.8321 45.6802 57.681 45.7508 57.5602 45.8314C57.4393 45.9221 57.3386 46.0228 57.2681 46.1438C57.1976 46.2647 57.1674 46.4058 57.1674 46.5469Z" fill="white"/>
<path d="M69.183 47.9778H68.3471V47.5344H68.3269C68.2262 47.6856 68.0349 47.8166 67.773 47.9073C67.5111 47.998 67.209 48.0484 66.8665 48.0484C66.645 48.0484 66.4435 48.0282 66.2522 47.9879C66.0608 47.9476 65.8896 47.8771 65.7486 47.7964C65.6076 47.7057 65.4867 47.5949 65.3961 47.4538C65.3054 47.3127 65.2651 47.1515 65.2651 46.96V45.1159H66.1011V46.8089C66.1011 46.9399 66.1313 47.0507 66.1817 47.1515C66.2421 47.2422 66.3126 47.3228 66.4032 47.3833C66.4939 47.4437 66.6047 47.484 66.7255 47.5143C66.8464 47.5445 66.9673 47.5546 67.0982 47.5546C67.2694 47.5546 67.4306 47.5344 67.5816 47.5042C67.7327 47.474 67.8636 47.4135 67.9744 47.3329C68.0852 47.2523 68.1759 47.1515 68.2363 47.0306C68.2967 46.9096 68.3269 46.7686 68.3269 46.5972V45.126H69.1629V47.9879L69.183 47.9778Z" fill="white"/>
<path d="M76.0519 45.8314C75.9512 45.7508 75.8303 45.6802 75.6792 45.6298C75.5282 45.5795 75.3569 45.5492 75.1454 45.5492C74.944 45.5492 74.7728 45.5795 74.6318 45.6298C74.4908 45.6802 74.4102 45.7608 74.4102 45.8717C74.4102 45.9523 74.4505 46.0229 74.5311 46.0732C74.6116 46.1236 74.7124 46.1639 74.8332 46.2042C74.944 46.2345 75.0749 46.2647 75.2059 46.2748C75.3368 46.2949 75.4476 46.305 75.5382 46.3151C75.7195 46.3453 75.8907 46.3756 76.0418 46.4159C76.1929 46.4562 76.3339 46.5066 76.4548 46.5771C76.5656 46.6376 76.6562 46.7182 76.7267 46.8089C76.7871 46.8996 76.8274 47.0104 76.8274 47.1515C76.8274 47.3127 76.7771 47.4538 76.6663 47.5647C76.5656 47.6755 76.4245 47.7763 76.2533 47.8468C76.0821 47.9174 75.8907 47.9678 75.6792 48.0081C75.4677 48.0383 75.2462 48.0585 75.0346 48.0585C74.6721 48.0585 74.3498 48.0182 74.0678 47.9476C73.7958 47.8771 73.544 47.7461 73.3325 47.5445L73.967 47.2019C74.108 47.2926 74.2591 47.3732 74.4203 47.4337C74.5915 47.5042 74.7929 47.5344 75.0346 47.5344C75.1354 47.5344 75.2462 47.5344 75.3569 47.5143C75.4677 47.5042 75.5584 47.474 75.649 47.4437C75.7296 47.4135 75.8001 47.3732 75.8505 47.3329C75.9008 47.2825 75.931 47.2321 75.931 47.1717C75.931 47.091 75.8907 47.0205 75.8102 46.9701C75.7296 46.9197 75.639 46.8794 75.5282 46.8492C75.4174 46.819 75.3066 46.7988 75.1857 46.7786C75.0649 46.7585 74.9541 46.7484 74.8634 46.7283C74.6821 46.698 74.5109 46.6678 74.3498 46.6275C74.1886 46.5872 74.0476 46.5469 73.9268 46.4864C73.8059 46.4259 73.7052 46.3453 73.6246 46.2546C73.5541 46.1639 73.5138 46.043 73.5138 45.912C73.5138 45.7608 73.5642 45.6298 73.6548 45.519C73.7555 45.4081 73.8764 45.3174 74.0375 45.2469C74.1987 45.1764 74.38 45.1159 74.5814 45.0857C74.7829 45.0554 74.9843 45.0353 75.1958 45.0353C75.498 45.0353 75.78 45.0756 76.0519 45.1461C76.3238 45.2167 76.5454 45.3376 76.7066 45.5089L76.0519 45.8314Z" fill="white"/>
<path d="M81.7321 46.7484C81.7321 46.8693 81.7724 46.9903 81.853 47.091C81.9336 47.1918 82.0444 47.2825 82.1854 47.353C82.3264 47.4236 82.4775 47.484 82.6587 47.5244C82.84 47.5647 83.0213 47.5848 83.2127 47.5848C83.4746 47.5848 83.6961 47.5445 83.8875 47.4639C84.0789 47.3833 84.2602 47.2825 84.4213 47.1515L85.0558 47.4639C84.5925 47.8569 83.9379 48.0484 83.1019 48.0484C82.7494 48.0484 82.4372 48.0081 82.1552 47.9375C81.8731 47.8569 81.6314 47.7561 81.4401 47.6251C81.2487 47.4941 81.0976 47.3329 80.9868 47.1515C80.876 46.9701 80.8257 46.7686 80.8257 46.5569C80.8257 46.3453 80.8861 46.1438 80.9969 45.9624C81.1077 45.781 81.2688 45.6198 81.4703 45.4887C81.6717 45.3577 81.9134 45.2469 82.1954 45.1764C82.4775 45.0957 82.7796 45.0655 83.112 45.0655C83.5048 45.0655 83.8371 45.1058 84.099 45.1965C84.3709 45.2872 84.5925 45.3981 84.7637 45.5391C84.935 45.6802 85.0659 45.8415 85.1364 46.0228C85.217 46.2042 85.2573 46.3856 85.2573 46.567V46.7585H81.7221L81.7321 46.7484ZM84.381 46.305C84.381 46.1841 84.3407 46.0732 84.2904 45.9725C84.24 45.8717 84.1594 45.781 84.0486 45.7104C83.9479 45.6399 83.8069 45.5794 83.6558 45.5391C83.4947 45.4988 83.3134 45.4787 83.1019 45.4787C82.8904 45.4787 82.7091 45.5089 82.5379 45.5492C82.3667 45.5996 82.2257 45.6701 82.1048 45.7407C81.9839 45.8213 81.8933 45.912 81.8329 46.0128C81.7724 46.1135 81.7321 46.2042 81.7321 46.305H84.3709H84.381Z" fill="white"/>
<path d="M97.7262 45.8314C97.6255 45.7508 97.5046 45.6802 97.3536 45.6298C97.2025 45.5795 97.0313 45.5492 96.8197 45.5492C96.6183 45.5492 96.4471 45.5795 96.3061 45.6298C96.155 45.6802 96.0845 45.7608 96.0845 45.8717C96.0845 45.9523 96.1248 46.0229 96.2054 46.0732C96.2859 46.1236 96.3867 46.1639 96.5075 46.2042C96.6183 46.2345 96.7492 46.2647 96.8802 46.2748C97.0111 46.2949 97.1219 46.305 97.2125 46.3151C97.3938 46.3453 97.5651 46.3756 97.7161 46.4159C97.8672 46.4562 98.0082 46.5066 98.1291 46.5771C98.2399 46.6376 98.3305 46.7182 98.401 46.8089C98.4614 46.8996 98.5017 47.0104 98.5017 47.1515C98.5017 47.3127 98.4514 47.4538 98.3406 47.5647C98.2298 47.6755 98.0989 47.7763 97.9276 47.8468C97.7564 47.9174 97.5651 47.9678 97.3536 48.0081C97.142 48.0484 96.9205 48.0585 96.709 48.0585C96.3464 48.0585 96.0241 48.0182 95.7421 47.9476C95.4701 47.8771 95.2183 47.7461 95.0068 47.5445L95.6414 47.2019C95.7824 47.2926 95.9334 47.3732 96.0946 47.4337C96.2658 47.5042 96.4672 47.5344 96.709 47.5344C96.8097 47.5344 96.9205 47.5344 97.0313 47.5143C97.142 47.5042 97.2327 47.474 97.3233 47.4437C97.414 47.4135 97.4744 47.3732 97.5248 47.3329C97.5751 47.2825 97.6054 47.2321 97.6054 47.1717C97.6054 47.091 97.5651 47.0205 97.4845 46.9701C97.4039 46.9197 97.3133 46.8794 97.2025 46.8492C97.0917 46.819 96.9809 46.7988 96.86 46.7786C96.7392 46.7585 96.6284 46.7484 96.5377 46.7283C96.3564 46.698 96.1852 46.6678 96.0241 46.6275C95.8629 46.5872 95.7219 46.5469 95.591 46.4864C95.4701 46.4259 95.3694 46.3453 95.2888 46.2546C95.2183 46.1639 95.1781 46.043 95.1781 45.912C95.1781 45.7608 95.2284 45.6298 95.3191 45.519C95.4198 45.4081 95.5406 45.3174 95.7018 45.2469C95.8629 45.1764 96.0442 45.1159 96.2457 45.0857C96.4471 45.0454 96.6485 45.0353 96.86 45.0353C97.1622 45.0353 97.4442 45.0756 97.7161 45.1461C97.9881 45.2167 98.2096 45.3376 98.3708 45.5089L97.7161 45.8314H97.7262Z" fill="white"/>
<path d="M102.249 45.1159H103.215L104.525 47.353H104.545L105.794 45.1159H106.69L104.595 48.5925C104.525 48.7135 104.444 48.8344 104.364 48.9352C104.283 49.0359 104.192 49.1266 104.072 49.1972C103.961 49.2677 103.83 49.3282 103.669 49.3685C103.508 49.4088 103.316 49.429 103.084 49.429C102.964 49.429 102.833 49.429 102.712 49.4088C102.591 49.3886 102.46 49.3786 102.349 49.3483L102.45 48.8546C102.621 48.8949 102.782 48.9251 102.954 48.9251C103.084 48.9251 103.195 48.915 103.286 48.8949C103.377 48.8747 103.457 48.8445 103.518 48.7941C103.578 48.7538 103.638 48.7034 103.679 48.6429C103.719 48.5825 103.769 48.522 103.81 48.4515L104.082 47.998L102.259 45.1159H102.249Z" fill="white"/>
<path d="M113.025 45.8314C112.924 45.7508 112.803 45.6802 112.652 45.6298C112.501 45.5795 112.33 45.5492 112.119 45.5492C111.917 45.5492 111.746 45.5795 111.605 45.6298C111.464 45.6802 111.383 45.7608 111.383 45.8717C111.383 45.9523 111.424 46.0229 111.504 46.0732C111.585 46.1236 111.685 46.1639 111.806 46.2042C111.917 46.2345 112.048 46.2647 112.179 46.2748C112.31 46.2949 112.421 46.305 112.511 46.3151C112.693 46.3453 112.864 46.3756 113.015 46.4159C113.166 46.4562 113.307 46.5066 113.428 46.5771C113.539 46.6376 113.629 46.7182 113.7 46.8089C113.76 46.8996 113.801 47.0104 113.801 47.1515C113.801 47.3127 113.75 47.4538 113.639 47.5647C113.539 47.6755 113.398 47.7763 113.226 47.8468C113.055 47.9174 112.864 47.9678 112.652 48.0081C112.441 48.0383 112.219 48.0585 112.008 48.0585C111.645 48.0585 111.323 48.0182 111.041 47.9476C110.769 47.8771 110.517 47.7461 110.306 47.5445L110.94 47.2019C111.081 47.2926 111.232 47.3732 111.393 47.4337C111.565 47.5042 111.766 47.5344 112.008 47.5344C112.109 47.5344 112.219 47.5344 112.33 47.5143C112.441 47.5042 112.532 47.474 112.622 47.4437C112.703 47.4135 112.773 47.3732 112.824 47.3329C112.874 47.2825 112.904 47.2321 112.904 47.1717C112.904 47.091 112.864 47.0205 112.783 46.9701C112.703 46.9197 112.612 46.8794 112.501 46.8492C112.391 46.819 112.28 46.7988 112.159 46.7786C112.038 46.7585 111.927 46.7484 111.837 46.7283C111.655 46.698 111.484 46.6678 111.323 46.6275C111.162 46.5872 111.021 46.5469 110.9 46.4864C110.779 46.4259 110.678 46.3453 110.598 46.2546C110.527 46.1639 110.487 46.043 110.487 45.912C110.487 45.7608 110.537 45.6298 110.628 45.519C110.729 45.4081 110.85 45.3174 111.011 45.2469C111.172 45.1764 111.353 45.1159 111.555 45.0857C111.756 45.0554 111.957 45.0353 112.169 45.0353C112.471 45.0353 112.753 45.0756 113.025 45.1461C113.297 45.2167 113.519 45.3376 113.68 45.5089L113.025 45.8314Z" fill="white"/>
<path d="M120.438 45.5895H119.239V46.8895C119.239 46.9701 119.239 47.0507 119.239 47.1313C119.239 47.212 119.27 47.2825 119.31 47.343C119.35 47.4034 119.411 47.4538 119.491 47.4941C119.572 47.5344 119.693 47.5546 119.864 47.5546C119.965 47.5546 120.065 47.5546 120.166 47.5344C120.267 47.5143 120.367 47.5042 120.458 47.4639V47.9577C120.357 47.998 120.226 48.0181 120.075 48.0282C119.914 48.0383 119.793 48.0484 119.713 48.0484C119.39 48.0484 119.139 48.0181 118.967 47.9577C118.786 47.8972 118.665 47.8267 118.575 47.736C118.494 47.6453 118.444 47.5445 118.424 47.4236C118.403 47.3127 118.403 47.1918 118.403 47.081V45.5895H117.437V45.1159H118.403V44.3097H119.239V45.1159H120.438V45.5895Z" fill="white"/>
<path d="M125.403 46.7484C125.403 46.8693 125.444 46.9903 125.524 47.091C125.605 47.1918 125.715 47.2825 125.856 47.353C125.997 47.4236 126.149 47.484 126.33 47.5244C126.511 47.5647 126.692 47.5848 126.884 47.5848C127.146 47.5848 127.367 47.5445 127.569 47.4639C127.76 47.3833 127.941 47.2825 128.102 47.1515L128.737 47.4639C128.274 47.8569 127.619 48.0484 126.783 48.0484C126.431 48.0484 126.118 48.0081 125.836 47.9375C125.554 47.8569 125.313 47.7561 125.121 47.6251C124.93 47.4941 124.779 47.3329 124.668 47.1515C124.557 46.9701 124.507 46.7686 124.507 46.5569C124.507 46.3453 124.567 46.1438 124.678 45.9624C124.789 45.781 124.95 45.6198 125.151 45.4887C125.353 45.3577 125.595 45.2469 125.877 45.1764C126.159 45.0957 126.461 45.0655 126.793 45.0655C127.186 45.0655 127.518 45.1058 127.78 45.1965C128.052 45.2872 128.274 45.3981 128.445 45.5391C128.616 45.6802 128.747 45.8415 128.818 46.0228C128.898 46.2042 128.938 46.3856 128.938 46.567V46.7585H125.403V46.7484ZM128.052 46.305C128.052 46.1841 128.012 46.0732 127.961 45.9725C127.911 45.8717 127.831 45.781 127.72 45.7104C127.619 45.6399 127.478 45.5794 127.327 45.5391C127.166 45.4988 126.984 45.4787 126.773 45.4787C126.561 45.4787 126.38 45.5089 126.209 45.5492C126.038 45.5996 125.897 45.6701 125.776 45.7407C125.655 45.8213 125.564 45.912 125.504 46.0128C125.444 46.1135 125.403 46.2042 125.403 46.305H128.042H128.052Z" fill="white"/>
<path d="M133.209 45.1159H133.995V45.5593H134.015C134.015 45.5593 134.085 45.4686 134.156 45.4081C134.226 45.3477 134.337 45.2872 134.458 45.2368C134.579 45.1864 134.72 45.1361 134.891 45.0957C135.052 45.0554 135.233 45.0353 135.435 45.0353C135.767 45.0353 136.039 45.0756 136.261 45.1663C136.482 45.257 136.664 45.388 136.815 45.5694C136.956 45.388 137.157 45.257 137.419 45.1663C137.681 45.0756 137.943 45.0353 138.215 45.0353C138.557 45.0353 138.839 45.0756 139.051 45.1461C139.272 45.2167 139.443 45.3174 139.564 45.4283C139.685 45.5492 139.776 45.6802 139.816 45.8314C139.856 45.9825 139.887 46.1337 139.887 46.2949V47.9577H139.051V46.3655C139.051 46.2546 139.041 46.1539 139.02 46.0531C139 45.9523 138.95 45.8616 138.889 45.7911C138.819 45.7105 138.728 45.65 138.597 45.6097C138.466 45.5694 138.305 45.5391 138.104 45.5391C137.701 45.5391 137.409 45.6198 137.238 45.781C137.066 45.9422 136.976 46.1539 136.976 46.4058V47.9678H136.14V46.4663C136.14 46.3252 136.13 46.2042 136.11 46.0934C136.09 45.9825 136.049 45.8818 135.979 45.8012C135.918 45.7205 135.818 45.65 135.697 45.6097C135.576 45.5593 135.415 45.5391 135.203 45.5391C135.052 45.5391 134.911 45.5593 134.77 45.5996C134.629 45.6399 134.508 45.6903 134.397 45.7709C134.297 45.8515 134.206 45.9422 134.146 46.0632C134.085 46.1841 134.055 46.3252 134.055 46.4864V47.9678H133.219V45.1058L133.209 45.1159Z" fill="white"/>
<path d="M115.402 26.2714H122.412C124.437 26.2714 126.088 27.9241 126.088 29.9496V36.9634C126.088 38.999 124.437 40.6416 122.412 40.6416H115.402C113.368 40.6416 111.726 38.9889 111.726 36.9634V29.9597C111.726 27.9241 113.378 26.2815 115.402 26.2815V26.2714Z" fill="white"/>
<path d="M137.933 26.2613H130.923C128.898 26.2613 127.247 27.914 127.247 29.9395V36.9432C127.247 38.9688 128.898 40.6214 130.923 40.6214H137.933C139.957 40.6214 141.609 38.9688 141.609 36.9432V29.9395C141.609 27.9039 139.957 26.2613 137.933 26.2613ZM139.182 36.0464C139.182 37.2355 138.215 38.2029 137.016 38.2029H131.829C130.641 38.2029 129.664 37.2355 129.664 36.0464V30.8566C129.664 29.6675 130.631 28.69 131.829 28.69H137.016C138.205 28.69 139.182 29.6574 139.182 30.8566V36.0464Z" fill="white"/>
<path d="M122.402 10.7323H115.392C113.368 10.7323 111.716 12.385 111.716 14.4105V21.4142C111.716 22.432 112.129 23.349 112.793 24.0141C112.914 24.1451 113.055 24.256 113.196 24.3668C113.247 24.397 113.297 24.4374 113.337 24.4676C113.438 24.5381 113.539 24.5986 113.64 24.649C114.163 24.9311 114.757 25.0924 115.392 25.0924H122.402C123.036 25.0924 123.631 24.9311 124.154 24.649C124.255 24.5885 124.356 24.5281 124.457 24.4676C124.507 24.4374 124.547 24.397 124.598 24.3668C124.739 24.256 124.87 24.1451 125 24.0141C125.665 23.349 126.078 22.432 126.078 21.4142V14.4105C126.078 12.385 124.426 10.7323 122.402 10.7323ZM123.651 20.5173C123.651 21.7064 122.684 22.6839 121.485 22.6839H116.298C115.11 22.6839 114.133 21.7165 114.133 20.5173V15.3275C114.133 14.1384 115.1 13.1609 116.298 13.1609H121.485C122.674 13.1609 123.651 14.1283 123.651 15.3275V20.5173Z" fill="white"/>
<path fill-rule="evenodd" clip-rule="evenodd" d="M136.221 22.6738C136.342 22.6738 136.462 22.6537 136.583 22.6335V13.2012C136.462 13.1811 136.352 13.1609 136.221 13.1609V22.6738Z" fill="white"/>
<path fill-rule="evenodd" clip-rule="evenodd" d="M139.091 15.4585C139.021 15.1461 138.89 14.8539 138.729 14.5919V21.2429C138.89 20.9809 139.011 20.6886 139.091 20.3762V15.4585Z" fill="white"/>
<path d="M135.506 13.1609H134.065V22.6738H135.506V13.1609Z" fill="white"/>
<path fill-rule="evenodd" clip-rule="evenodd" d="M138.376 21.7165V14.1182C138.265 13.9973 138.144 13.8965 138.013 13.7958V22.039C138.144 21.9382 138.265 21.8374 138.376 21.7165Z" fill="white"/>
<path d="M133.703 13.1609H132.988V22.6738H133.703V13.1609Z" fill="white"/>
<path fill-rule="evenodd" clip-rule="evenodd" d="M129.765 15.4585V20.3762C129.956 21.1925 130.49 21.8777 131.205 22.2808V13.564C130.49 13.9671 129.966 14.6423 129.765 15.4686V15.4585Z" fill="white"/>
<path fill-rule="evenodd" clip-rule="evenodd" d="M132.273 13.2012C132.152 13.2214 132.031 13.2415 131.91 13.2718V22.5731C132.031 22.6033 132.142 22.6235 132.273 22.6436V13.2113V13.2012Z" fill="white"/>
</svg>
