<svg id="a" xmlns="http://www.w3.org/2000/svg" width="1000" height="1200" viewBox="0 0 1000 1200"><path d="M650,100H250c-55.228,0-100,44.771-100,100h0c0,55.229,44.771,100,100,100h500c55.228,0,100,44.771,100,100h0c0,55.229-44.771,100-100,100h-250c-55.228,0-100,44.771-100,100h0c0,55.229,44.771,100,100,100h250c55.228,0,100,44.771,100,100h0c0,55.229-44.771,100-100,100h-403.448c-55.228,0-100,44.771-100,100h0c0,55.229,44.771,100,100,100h348.276" fill="none" stroke="#2d2d2d" stroke-linecap="round" stroke-miterlimit="10" stroke-width="29"/><path d="M629.014,100H250c-55.228,0-100,44.771-100,100h0c0,55.229,44.771,100,100,100h500c55.228,0,100,44.771,100,100h0c0,55.229-44.771,100-100,100h-250c-55.228,0-100,44.771-100,100h0c0,55.229,44.771,100,100,100h250c55.228,0,100,44.771,100,100h0c0,55.229-44.771,100-100,100h-403.448c-55.228,0-100,44.771-100,100h0c0,55.229,44.771,100,100,100h334.783" fill="none" stroke="#f2f2f2" stroke-dasharray="11.989 14.986" stroke-linecap="round" stroke-miterlimit="10" stroke-width="5"/></svg>
