<svg xmlns="http://www.w3.org/2000/svg" version="1.1" xmlns:xlink="http://www.w3.org/1999/xlink" id="Warstwa_1" viewBox="0 0 122 119.9" width="122" height="119.9"><defs>
    <style>
      .st0 {
        fill: none;
      }

      .st1 {
        fill: #f4f4f4;
        stroke: #585857;
        stroke-miterlimit: 10;
        stroke-width: 3px;
      }

      .st2 {
        fill: #f39208;
      }

      .st3 {
        fill: #585857;
      }

      .st4 {
        clip-path: url(#clippath);
      }
    </style>
    <clipPath id="clippath">
      <rect class="st0" x="68.3" y="29.5" width="23.1" height="23.1" rx="7.3" ry="7.3"></rect>
    </clipPath>
  </defs><rect class="st1" x="16.3" y="15.2" width="89.5" height="89.5" rx="20.9" ry="20.9"></rect><g>
    <path class="st3" d="M33.6,61.4h17.1c4.9,0,8.9,4,8.9,8.9v17.1c0,4.9-4,8.9-8.9,8.9h-17.1c-4.9,0-8.9-4-8.9-8.9v-17c0-4.9,4-8.9,8.9-8.9h0Z"></path>
    <path class="st2" d="M88.4,61.4h-17.1c-4.9,0-8.9,4-8.9,8.9v17c0,4.9,4,8.9,8.9,8.9h17.1c4.9,0,8.9-4,8.9-8.9v-17c0-4.9-4-8.9-8.9-8.9ZM91.4,85.1c0,2.9-2.4,5.2-5.3,5.2h-12.6c-2.9,0-5.3-2.4-5.3-5.2v-12.6c0-2.9,2.4-5.3,5.3-5.3h12.6c2.9,0,5.3,2.4,5.3,5.3v12.6Z"></path>
    <path class="st2" d="M50.6,23.6h-17.1c-4.9,0-8.9,4-8.9,8.9v17c0,2.5,1,4.7,2.6,6.3.3.3.6.6,1,.9.1,0,.2.2.3.2.2.2.5.3.7.4,1.3.7,2.7,1.1,4.3,1.1h17.1c1.5,0,3-.4,4.3-1.1.2-.1.5-.3.7-.4.1,0,.2-.2.3-.2.3-.3.7-.5,1-.9,1.6-1.6,2.6-3.8,2.6-6.3v-17c0-4.9-4-8.9-8.9-8.9ZM53.7,47.4c0,2.9-2.4,5.3-5.3,5.3h-12.6c-2.9,0-5.3-2.4-5.3-5.3v-12.6c0-2.9,2.4-5.3,5.3-5.3h12.6c2.9,0,5.3,2.4,5.3,5.3v12.6Z"></path>
    <g class="st4">
      <path class="st3" d="M82.5,61.1h-3.5V21h3.5v40.1h0ZM72,21h-3.5v40.1h3.5V21ZM78.1,21h-1.7v40.1h1.7V21ZM91.2,21h-.9v40.1h.9V21ZM89.5,21h-.9v40.1h.9V21ZM85.1,21h-.9v40.1h.9V21ZM74.6,21h-.9v40.1h.9V21Z"></path>
    </g>
  </g><style>@media (prefers-color-scheme: light) { :root { filter: none; } }
@media (prefers-color-scheme: dark) { :root { filter: none; } }
</style></svg>